<?xml version="1.0" standalone="no"?>
<!DOCTYPE svg PUBLIC "-//W3C//DTD SVG 20010904//EN"
 "http://www.w3.org/TR/2001/REC-SVG-20010904/DTD/svg10.dtd">
<svg version="1.0" xmlns="http://www.w3.org/2000/svg"
 width="225.000000pt" height="225.000000pt" viewBox="0 0 225.000000 225.000000"
 preserveAspectRatio="xMidYMid meet">

<g transform="translate(0.000000,225.000000) scale(0.100000,-0.100000)"
fill="#000000" stroke="none">
<path d="M1414 1966 c-34 -8 -79 -23 -101 -35 -56 -28 -175 -125 -253 -206
-72 -74 -174 -159 -233 -193 -46 -26 -63 -29 -25 -4 l27 18 -63 -4 c-114 -7
-181 47 -180 144 0 97 70 154 186 154 44 0 59 3 48 10 -13 9 -13 10 0 11 10 0
8 3 -5 9 -36 16 -91 10 -138 -13 -38 -20 -47 -21 -52 -10 -3 8 -2 20 2 26 9
15 -44 -18 -75 -47 -79 -71 -105 -208 -59 -309 29 -64 82 -118 147 -150 37
-18 61 -22 135 -21 158 2 273 63 460 247 160 158 250 196 346 147 43 -22 72
-62 91 -124 9 -30 20 -42 47 -53 42 -18 52 -31 46 -58 -3 -11 7 5 22 35 34 71
40 132 18 205 -49 171 -209 261 -391 221z m-667 -472 c-3 -3 -12 -4 -19 -1 -8
3 -5 6 6 6 11 1 17 -2 13 -5z"/>
<path d="M1535 1410 c-51 -24 -55 -28 -25 -23 32 5 100 38 100 49 0 8 -16 3
-75 -26z"/>
<path d="M784 1055 l6 -25 -110 0 c-104 0 -110 -1 -110 -20 0 -20 6 -20 260
-19 249 1 260 1 260 20 0 18 -8 19 -105 19 -103 0 -106 1 -115 25 -8 21 -16
25 -51 25 -39 0 -41 -1 -35 -25z"/>
<path d="M1220 1033 c17 -46 20 -48 59 -51 23 -2 41 -1 41 1 0 2 -7 24 -16 50
-16 46 -17 47 -59 47 l-43 0 18 -47z"/>
<path d="M1380 1050 c0 -19 7 -20 110 -20 61 0 110 -4 110 -9 0 -5 -10 -34
-21 -65 l-22 -56 -88 0 c-82 0 -89 -2 -89 -20 0 -19 7 -20 131 -20 l130 0 -3
-155 -3 -155 36 0 c33 0 37 3 43 31 3 17 6 91 6 163 0 140 -5 156 -47 156 -28
0 -28 2 -3 74 32 94 28 96 -145 96 -138 0 -145 -1 -145 -20z"/>
<path d="M657 930 c5 -30 5 -30 -41 -30 l-46 0 0 -175 0 -175 35 0 35 0 0 155
0 155 30 0 c28 0 29 -2 20 -26 -14 -35 -15 -34 31 -34 36 0 41 3 50 30 10 28
15 30 59 30 46 0 49 -2 55 -30 6 -28 10 -30 50 -30 l44 0 -9 30 c-8 28 -7 30
16 30 l25 0 -3 -155 -3 -155 36 0 c33 0 37 3 43 31 11 58 7 294 -6 307 -7 7
-30 12 -51 12 -31 0 -38 3 -33 15 3 8 9 22 12 30 5 12 -3 15 -39 15 -42 0 -46
-2 -52 -30 l-7 -30 -78 0 c-78 0 -78 0 -89 30 -9 27 -14 30 -50 30 -40 0 -40
-1 -34 -30z"/>
<path d="M1231 850 c19 -49 19 -53 1 -170 -10 -66 -16 -123 -13 -125 2 -3 21
-5 41 -5 l37 0 17 108 c20 131 20 137 0 195 -16 46 -17 47 -59 47 l-43 0 19
-50z"/>
<path d="M1410 803 c0 -15 -28 -178 -35 -205 -7 -27 -6 -28 29 -28 43 0 50 13
66 118 6 37 13 79 16 95 5 26 4 27 -35 27 -23 0 -41 -3 -41 -7z"/>
<path d="M1517 707 c-9 -56 -19 -110 -23 -120 -9 -25 61 -24 75 1 8 14 41 191
41 217 0 3 -17 5 -39 5 l-38 0 -16 -103z"/>
<path d="M680 753 c-1 -5 -2 -41 -3 -81 l-2 -72 153 0 152 0 0 80 0 80 -150 0
c-82 0 -150 -3 -150 -7z m230 -73 l0 -40 -80 0 -80 0 0 40 0 40 80 0 80 0 0
-40z"/>
<path d="M1340 474 c0 -17 22 -14 28 4 2 7 -3 12 -12 12 -9 0 -16 -7 -16 -16z"/>
<path d="M1253 462 c-24 -20 -30 -42 -13 -42 6 0 10 -13 10 -29 0 -45 10 -61
36 -61 27 0 32 15 9 24 -9 3 -15 18 -15 36 0 20 5 30 15 30 8 0 15 7 15 15 0
8 -6 15 -14 15 -8 0 -16 7 -18 16 -3 14 -6 13 -25 -4z"/>
<path d="M577 443 c-18 -17 -5 -45 28 -59 43 -17 46 -36 5 -32 -16 2 -29 -1
-30 -7 0 -5 15 -11 33 -13 63 -6 76 49 17 69 -39 14 -39 29 0 29 17 0 30 5 30
10 0 11 -73 14 -83 3z"/>
<path d="M706 434 c-37 -36 -7 -104 45 -104 31 0 53 15 45 29 -5 7 -13 7 -26
-2 -16 -9 -23 -9 -37 6 -16 16 -15 17 30 17 40 0 47 3 47 19 0 28 -27 51 -60
51 -16 0 -36 -7 -44 -16z m72 -21 c2 -9 -7 -13 -27 -13 -30 0 -39 9 -24 24 11
10 46 3 51 -11z"/>
<path d="M830 390 c0 -47 3 -60 15 -60 11 0 15 12 15 44 0 49 9 61 40 51 16
-5 20 -15 20 -51 0 -32 4 -44 15 -44 19 0 21 90 3 108 -7 7 -34 12 -60 12
l-48 0 0 -60z"/>
<path d="M981 436 c-17 -21 -3 -45 33 -54 38 -10 36 -27 -4 -27 -16 0 -30 -4
-30 -10 0 -5 19 -10 43 -10 40 0 42 1 42 29 0 25 -5 31 -32 38 -41 11 -44 32
-3 26 18 -3 31 0 34 9 7 18 -68 18 -83 -1z"/>
<path d="M1107 432 c-22 -24 -21 -65 1 -85 24 -22 76 -22 93 0 13 15 11 16
-22 9 -27 -5 -40 -2 -49 9 -11 13 -6 15 34 15 49 0 57 11 36 51 -14 25 -71 26
-93 1z m71 -19 c2 -9 -7 -13 -27 -13 -30 0 -39 9 -24 24 11 10 46 3 51 -11z"/>
<path d="M1340 390 c0 -47 3 -60 15 -60 12 0 15 13 15 60 0 47 -3 60 -15 60
-12 0 -15 -13 -15 -60z"/>
<path d="M1400 389 c0 -32 4 -59 9 -59 11 0 23 44 16 62 -7 20 11 42 29 35 11
-5 16 -19 16 -52 0 -33 4 -45 14 -45 11 0 16 14 18 48 3 39 6 47 23 47 17 0
20 -8 23 -47 2 -34 7 -48 18 -48 16 0 19 55 5 93 -9 24 -14 25 -90 25 l-81 1
0 -60z"/>
<path d="M1616 434 c-9 -8 -16 -28 -16 -43 0 -47 46 -73 94 -55 27 10 18 26
-11 20 -29 -6 -63 8 -50 20 4 5 25 7 47 6 44 -3 50 9 24 46 -18 26 -65 30 -88
6z m72 -21 c2 -9 -7 -13 -27 -13 -30 0 -39 9 -24 24 11 10 46 3 51 -11z"/>
</g>
</svg>
